# xmcd
#
# Track frame offsets:
#  225
#  17202
#  33190
#  47032
#  63230
#  77830
#  94297
#  109275
#  123370
#  143465
#
# Disc length: 2134 seconds
#
# Revision: 1
# Processed by: cddbd v1.4PL0 Copyright (c) Steve Scherf et al.
# Submitted via: AltoMP3_Maker 3.0
#
DISCID=7f08530a
DTITLE=Frank Michael - J'peux pas T'oublier
DYEAR=1900
DGENRE=Pop
TTITLE0=Le blues de toi
TTITLE1=Mama
TTITLE2=Maudit blues
TTITLE3=L'émigrant
TTITLE4=Je vais t'aimer
TTITLE5=Dites-lui que je l'aime
TTITLE6=J'peux pas t'oublier
TTITLE7=Stop au présent
TTITLE8=Mi vida tu
TTITLE9=Papa combat
EXTD=
EXTT0=
EXTT1=
EXTT2=
EXTT3=
EXTT4=
EXTT5=
EXTT6=
EXTT7=
EXTT8=
EXTT9=
PLAYORDER=
